<svg version="1.0" xmlns="http://www.w3.org/2000/svg" width="220"
     height="180" viewBox="0 0 340.000000 250.000000" preserveAspectRatio="xMidYMid meet" color-interpolation-filters="sRGB"
     class="el-tooltip" style="margin: auto;">
    <g data-v-2ad30200="" fill="#008ab5" class="icon-svg-group iconsvg"
       transform="translate(63.77190399169922,94.99999809265137)">
        <g class="iconsvg-imagesvg" transform="translate(0,0)">
            <rect fill="#008ab5" fill-opacity="0" stroke-width="2" x="0" y="0" width="47.644942023191" height="60"></rect>
            <svg x="0" y="0" width="47.644942023191" height="60" class="imagesvg-svg">
                <svg xmlns="http://www.w3.org/2000/svg" viewBox="0 0 19.86 25.01">
                    <g>
                        <path fill="#00abdc" fill-rule="evenodd"
                              d="M17.24 11.16L7.21 1.13 8.88 0l3.15 2.13v-.88h2.75V4l2.46 1.67v5.49z"></path>
                        <path fill="#008ab5" fill-rule="evenodd" d="M0 3.43L5 .04l12.24 12.25v8.38L0 3.43z"></path>
                        <path fill="#95c120" fill-rule="evenodd"
                              d="M.51 5.67l.32-.22 19.03 19.03v.53h-7.85L.51 13.52V5.67z"></path>
                        <path fill="#569635" fill-rule="evenodd" d="M8.26 22.39H.51v-7.74l7.75 7.74z"></path>
                    </g>
                </svg>
            </svg> <!---->
        </g>
        <g transform="translate(54.64494323730469,4.931253433227539)">
            <g class="tp-name iconsvg-namesvg" transform="translate(0,0)">
                <g>
                    <path transform="translate(-1.25,32.03125)"
                          d="M17.50-31.72L17.50-31.72L17.50-31.72Q22.03-31.56 22.81-31.09L22.81-31.09L22.81-31.09Q22.81-30.94 22.66-30.63L22.66-30.63L22.66-30.63Q21.72-29.06 21.72-25.78L21.72-25.78L21.72 0L21.72 0Q22.97 2.50 14.22 3.13L14.22 3.13L14.22 3.13Q14.06 0.78 12.34-1.09L12.34-1.09L12.34-1.09Q18.59-0.31 17.97-2.19L17.97-2.19L17.97-25.63L17.97-25.63Q17.97-30 17.50-31.72ZM25.47-21.09L28.91-22.97L28.91-22.97Q34.06-14.69 37.81-6.25L37.81-6.25L33.44-4.22L33.44-4.22Q30-13.91 25.47-21.09L25.47-21.09ZM8.91-22.81L8.91-22.81L8.91-22.81Q12.97-22.03 13.59-21.41L13.59-21.41L13.59-21.41Q13.59-21.25 13.28-21.09L13.28-21.09L13.28-21.09Q12.34-20 11.88-18.44L11.88-18.44L11.88-18.44Q9.53-12.03 5.78-3.44L5.78-3.44L5.78-3.44Q3.75-4.69 1.25-4.69L1.25-4.69L1.25-4.69Q6.25-10 8.91-22.81ZM66.09-32.03L66.09-32.03L66.09-32.03Q69.22-31.41 70.16-31.09L70.16-31.09L70.16-31.09Q70.78-30.94 70.16-30.31L70.16-30.31L70.16-30.31Q69.38-29.38 69.22-28.75L69.22-28.75L69.22-28.75Q68.75-27.03 67.81-24.69L67.81-24.69L73.44-24.69L73.44-24.69Q75.63-24.69 77.50-25L77.50-25L77.50-25Q77.19-17.03 77.03-14.53L77.03-14.53L76.88-2.81L76.88-2.81Q76.72 1.72 74.69 2.50L74.69 2.50L74.69 2.50Q73.28 3.13 68.28 3.59L68.28 3.59L68.28 3.59Q67.81 0.47 66.56-0.78L66.56-0.78L66.56-0.78Q71.41 0.63 73.13-1.25L73.13-1.25L73.13-1.25Q73.75-1.72 74.22-22.03L74.22-22.03L66.88-22.03L66.88-22.03Q65.16-18.13 64.06-16.25L64.06-16.25L64.06-16.25Q62.19-17.19 61.09-17.19L61.09-17.19L61.09-0.94L61.09-0.94Q61.09 0.94 61.41 2.34L61.41 2.34L58.13 2.34L58.13 2.34Q58.44 1.56 58.44 0.31L58.44 0.31L46.41 0.31L46.41 0.31Q46.41 1.88 46.56 2.97L46.56 2.97L43.28 2.97L43.28 2.97Q43.59 1.72 43.59-1.09L43.59-1.09L43.59-17.81L43.59-17.81Q43.59-20.47 43.28-22.19L43.28-22.19L43.28-22.19Q45-21.88 47.66-21.88L47.66-21.88L49.06-21.88L49.06-26.72L46.41-26.72L46.41-26.72Q44.06-26.72 42.19-26.41L42.19-26.41L42.19-29.69L42.19-29.69Q44.06-29.38 46.56-29.38L46.56-29.38L58.28-29.38L58.28-29.38Q61.41-29.38 62.50-29.69L62.50-29.69L62.50-26.25L62.50-26.25Q61.41-26.72 58.13-26.72L58.13-26.72L55.94-26.72L55.94-21.88L57.34-21.88L57.34-21.88Q58.91-21.88 61.41-22.19L61.41-22.19L61.41-22.19Q61.09-20 61.09-17.66L61.09-17.66L61.09-17.66Q64.84-23.13 66.09-32.03ZM53.91-26.72L51.09-26.72L51.09-21.88L53.91-21.88L53.91-26.72ZM49.06-15.94L49.06-19.38L46.25-19.38L46.25-6.41L58.28-6.41L58.28-9.53L58.28-9.53Q57.34-9.53 56.72-9.53L56.72-9.53L56.72-9.53Q53.75-9.38 53.91-11.88L53.91-11.88L53.91-19.38L51.09-19.38L51.09-14.84L51.09-14.84Q51.09-11.09 48.75-8.44L48.75-8.44L48.75-8.44Q47.97-9.22 46.56-9.53L46.56-9.53L46.56-9.53Q49.06-11.88 49.06-15.94L49.06-15.94ZM58.28-19.38L55.94-19.38L55.94-13.13L55.94-13.13Q55.63-11.72 58.28-11.88L58.28-11.88L58.28-19.38ZM65-15.16L68.44-15.94L68.44-15.94Q68.91-15 70-11.09L70-11.09L70-11.09Q70.47-9.53 70.63-8.75L70.63-8.75L67.03-7.81L67.03-7.81Q66.72-11.09 65-15.16L65-15.16ZM58.28-4.38L46.25-4.38L46.25-1.41L58.28-1.41L58.28-4.38ZM117.19-16.56L117.19-16.56L117.19-12.66L117.19-12.66Q114.69-12.97 110-12.97L110-12.97L90.16-12.97L90.16-12.97Q85.16-12.97 82.50-12.66L82.50-12.66L82.50-16.56L82.50-16.56Q85.47-16.25 89.84-16.25L89.84-16.25L109.69-16.25L109.69-16.25Q114.69-16.25 117.19-16.56ZM128.59-32.03L128.59-32.03L128.59-32.03Q132.97-31.72 132.81-31.41L132.81-31.41L132.81-31.41Q132.81-31.41 132.66-31.25L132.66-31.25L132.66-31.25Q131.72-30.47 131.72-29.38L131.72-29.38L131.72-23.59L131.72-23.59Q135.94-23.59 137.19-23.91L137.19-23.91L137.19-20.63L137.19-20.63Q136.72-20.78 131.72-20.78L131.72-20.78L131.72-3.44L131.72-3.44Q131.72 1.56 132.03 3.44L132.03 3.44L128.59 3.44L128.59 3.44Q128.59 2.97 128.59 1.56L128.59 1.56L128.59 1.56Q128.75-0.94 128.75-3.13L128.75-3.13L128.75-15.47L128.75-15.47Q126.41-8.91 123.28-4.69L123.28-4.69L123.28-4.69Q122.50-6.41 121.09-8.28L121.09-8.28L121.09-8.28Q126.56-13.13 128.13-20.78L128.13-20.78L128.13-20.78Q123.28-20.78 122.34-20.47L122.34-20.47L122.34-23.91L122.34-23.91Q122.50-23.59 128.75-23.59L128.75-23.59L128.75-28.91L128.75-28.91Q128.75-30.47 128.59-31.72L128.59-31.72L128.59-31.72Q128.44-32.03 128.59-32.03ZM157.81-29.84L157.81-29.84L157.81-26.09L157.81-26.09Q157.03-26.41 149.84-26.41L149.84-26.41L149.84-26.41Q149.53-25.47 148.44-23.28L148.44-23.28L148.44-23.28Q147.97-21.88 147.81-21.56L147.81-21.56L147.81-2.97L147.81-2.97Q147.81 2.19 148.13 3.75L148.13 3.75L144.38 3.75L144.38 3.75Q144.69 1.25 144.69-2.81L144.69-2.81L144.69-15.94L144.69-15.94Q142.19-10.47 136.56-4.53L136.56-4.53L136.56-4.53Q136.25-5.16 133.13-6.88L133.13-6.88L133.13-6.88Q141.88-12.50 146.25-26.41L146.25-26.41L142.50-26.41L142.50-26.41Q136.41-26.41 135.63-26.09L135.63-26.09L135.63-29.69L135.63-29.69Q136.56-29.38 142.19-29.38L142.19-29.38L149.69-29.38L149.69-29.38Q155.94-29.38 157.81-29.84ZM132.19-15.16L134.22-17.19L134.22-17.19Q135.31-16.25 137.97-12.81L137.97-12.81L135.31-10.94L135.31-10.94Q133.59-13.91 132.19-15.16L132.19-15.16ZM148.59-15.16L151.56-17.19L151.56-17.19Q155-13.44 159.06-7.66L159.06-7.66L155.94-5.31L155.94-5.31Q153.28-10.47 148.59-15.16L148.59-15.16Z"></path>
                </g> <!---->
            </g>
            <g class="tp-slogan iconsvg-slogansvg" fill="#569635" transform="translate(0.001251220703125,39.029998779296875)">
                <!---->
                <rect fill-opacity="0" x="100.39999389648438" height="1" y="5.055000305175781" width="57.410003662109375"></rect>
                <!---->
                <g>
                    <path transform="translate(-0.1875,8.71875)"
                          d="M6.56 0L5.72-2.48L2.25-2.48L1.36 0L0.19 0L3.42-8.58L4.73-8.58L7.83 0L6.56 0ZM3.98-7.31L2.63-3.52L5.30-3.52L4.03-7.31L3.98-7.31ZM17.02-4.13L17.02-4.13L15.98-4.13L15.98-4.13Q15.84-5.48 14.53-5.48L14.53-5.48L14.53-5.48Q12.84-5.39 12.75-3.14L12.75-3.14L12.75-3.14Q12.75-0.70 14.48-0.70L14.48-0.70L14.48-0.70Q15.75-0.80 15.98-2.20L15.98-2.20L17.02-2.20L17.02-2.20Q16.64 0.05 14.48 0.09L14.48 0.09L14.48 0.09Q11.77 0 11.67-2.95L11.67-2.95L11.67-2.95Q11.77-6.38 14.67-6.47L14.67-6.47L14.67-6.47Q16.73-6.42 17.02-4.13ZM23.16-6.28L23.16 0L22.17 0L22.17-0.89L22.13-0.94L22.13-0.94Q21.47 0.14 20.11 0.09L20.11 0.09L20.11 0.09Q18.14 0 18.09-1.78L18.09-1.78L18.09-6.28L19.17-6.28L19.17-2.11L19.17-2.11Q19.17-0.70 20.39-0.70L20.39-0.70L20.39-0.70Q21.98-0.75 22.13-2.81L22.13-2.81L22.13-6.28L23.16-6.28ZM25.64-2.81L25.64-2.81L25.64-2.81Q25.69-0.84 27.38-0.70L27.38-0.70L27.38-0.70Q29.02-0.75 29.06-3.14L29.06-3.14L29.06-3.14Q29.11-5.48 27.33-5.48L27.33-5.48L27.33-5.48Q25.64-5.48 25.64-2.81ZM25.69 2.39L24.66 2.39L24.66-6.28L25.64-6.28L25.64-5.39L25.69-5.39L25.69-5.39Q25.69-5.39 25.73-5.44L25.73-5.44L25.73-5.44Q26.39-6.47 27.52-6.47L27.52-6.47L27.52-6.47Q30-6.33 30.14-3.33L30.14-3.33L30.14-3.33Q30 0 27.38 0.09L27.38 0.09L27.38 0.09Q26.30 0.09 25.73-0.66L25.73-0.66L25.69-0.66L25.69 2.39ZM34.36-3.14L34.36-3.14L34.36-3.14Q34.55-6.33 37.27-6.47L37.27-6.47L37.27-6.47Q39.98-6.33 40.17-3.14L40.17-3.14L40.17-3.14Q39.98 0 37.27 0.09L37.27 0.09L37.27 0.09Q34.55 0 34.36-3.14ZM35.44-3.14L35.44-3.14L35.44-3.14Q35.58-0.80 37.27-0.75L37.27-0.75L37.27-0.75Q38.95-0.80 39.09-3.14L39.09-3.14L39.09-3.14Q38.95-5.48 37.27-5.53L37.27-5.53L37.27-5.53Q35.58-5.48 35.44-3.14ZM43.73-6.28L43.73-5.39L42.66-5.39L42.66 0L41.63 0L41.63-5.39L40.78-5.39L40.78-6.28L41.63-6.28L41.63-7.31L41.63-7.31Q41.63-8.72 43.22-8.72L43.22-8.72L43.22-8.72Q43.50-8.72 43.73-8.67L43.73-8.67L43.73-7.78L43.73-7.78Q43.50-7.78 43.27-7.78L43.27-7.78L43.27-7.78Q42.66-7.78 42.66-7.03L42.66-7.03L42.66-6.28L43.73-6.28ZM52.17-8.58L53.20-8.58L53.20 0L52.22 0L52.22-0.84L52.22-0.84Q51.66 0.09 50.44 0.09L50.44 0.09L50.44 0.09Q47.81 0 47.67-3.33L47.67-3.33L47.67-3.33Q47.81-6.33 50.30-6.47L50.30-6.47L50.30-6.47Q51.28-6.47 52.08-5.53L52.08-5.53L52.08-5.53Q52.13-5.44 52.17-5.39L52.17-5.39L52.17-5.44L52.17-8.58ZM48.75-3.14L48.75-3.14L48.75-3.14Q48.84-0.80 50.44-0.70L50.44-0.70L50.44-0.70Q52.13-0.89 52.17-2.81L52.17-2.81L52.17-2.81Q52.17-5.48 50.48-5.48L50.48-5.48L50.48-5.48Q48.70-5.48 48.75-3.14ZM54.70-6.28L55.78-6.28L55.78 0L54.70 0L54.70-6.28ZM55.78-8.58L55.78-7.41L54.70-7.41L54.70-8.58L55.78-8.58ZM61.88-4.45L61.88-4.45L60.84-4.45L60.84-4.45Q60.84-5.53 59.34-5.53L59.34-5.53L59.34-5.53Q58.17-5.48 58.13-4.64L58.13-4.64L58.13-4.64Q58.03-4.03 59.25-3.80L59.25-3.80L60.33-3.56L60.33-3.56Q62.11-3.14 62.06-1.88L62.06-1.88L62.06-1.88Q61.97 0 59.63 0.09L59.63 0.09L59.63 0.09Q56.95 0.09 56.91-2.02L56.91-2.02L57.89-2.02L57.89-2.02Q57.98-0.70 59.63-0.70L59.63-0.70L59.63-0.70Q60.98-0.75 61.03-1.73L61.03-1.73L61.03-1.73Q61.13-2.30 59.81-2.63L59.81-2.63L58.55-2.91L58.55-2.91Q57.09-3.28 57.09-4.41L57.09-4.41L57.09-4.41Q57.19-6.33 59.48-6.47L59.48-6.47L59.48-6.47Q61.73-6.42 61.88-4.45ZM68.25-4.13L68.25-4.13L67.22-4.13L67.22-4.13Q67.08-5.48 65.77-5.48L65.77-5.48L65.77-5.48Q64.08-5.39 63.98-3.14L63.98-3.14L63.98-3.14Q63.98-0.70 65.72-0.70L65.72-0.70L65.72-0.70Q66.98-0.80 67.22-2.20L67.22-2.20L68.25-2.20L68.25-2.20Q67.88 0.05 65.72 0.09L65.72 0.09L65.72 0.09Q63 0 62.91-2.95L62.91-2.95L62.91-2.95Q63-6.38 65.91-6.47L65.91-6.47L65.91-6.47Q67.97-6.42 68.25-4.13ZM70.50-3.66L70.50-3.66L70.50 0L69.42 0L69.42-6.28L70.45-6.28L70.45-5.20L70.45-5.20Q71.16-6.47 72.23-6.47L72.23-6.47L72.23-6.47Q72.33-6.47 72.42-6.42L72.42-6.42L72.42-6.42Q72.47-6.42 72.52-6.42L72.52-6.42L72.52-5.30L72.09-5.30L72.09-5.30Q70.59-5.20 70.50-3.66ZM77.53-1.97L77.53-1.97L78.56-1.97L78.56-1.97Q78.38-0.89 77.44-0.23L77.44-0.23L77.44-0.23Q76.92 0.09 75.75 0.09L75.75 0.09L75.75 0.09Q73.08 0 72.94-2.95L72.94-2.95L72.94-2.95Q73.03-6.38 75.94-6.47L75.94-6.47L75.94-6.47Q78.61-6.42 78.66-2.77L78.66-2.77L74.06-2.77L74.06-2.77Q74.06-0.70 75.89-0.70L75.89-0.70L75.89-0.70Q77.20-0.80 77.53-1.97ZM74.06-3.61L74.06-3.61L77.58-3.61L77.58-3.61Q77.44-5.48 75.80-5.48L75.80-5.48L75.80-5.48Q74.25-5.34 74.06-3.61ZM82.22-6.28L82.22-5.39L81.19-5.39L81.19-1.31L81.19-1.31Q81.19-0.80 81.80-0.80L81.80-0.80L82.22-0.80L82.22 0L82.22 0Q81.94 0 81.56 0L81.56 0L81.56 0Q81.47 0 81.42 0L81.42 0L81.42 0Q80.06 0 80.11-1.22L80.11-1.22L80.11-5.39L79.31-5.39L79.31-6.28L80.11-6.28L80.11-8.02L81.19-8.02L81.19-6.28L82.22-6.28ZM83.25-6.28L84.33-6.28L84.33 0L83.25 0L83.25-6.28ZM84.33-8.58L84.33-7.41L83.25-7.41L83.25-8.58L84.33-8.58ZM85.50-3.14L85.50-3.14L85.50-3.14Q85.69-6.33 88.41-6.47L88.41-6.47L88.41-6.47Q91.13-6.33 91.31-3.14L91.31-3.14L91.31-3.14Q91.13 0 88.41 0.09L88.41 0.09L88.41 0.09Q85.69 0 85.50-3.14ZM86.58-3.14L86.58-3.14L86.58-3.14Q86.72-0.80 88.41-0.75L88.41-0.75L88.41-0.75Q90.09-0.80 90.23-3.14L90.23-3.14L90.23-3.14Q90.09-5.48 88.41-5.53L88.41-5.53L88.41-5.53Q86.72-5.48 86.58-3.14ZM97.59-4.27L97.59-4.27L97.59 0L96.56 0L96.56-3.84L96.56-3.84Q96.66-5.58 95.20-5.48L95.20-5.48L95.20-5.48Q93.61-5.39 93.56-3.42L93.56-3.42L93.56 0L92.48 0L92.48-6.28L93.52-6.28L93.52-5.39L93.52-5.39Q94.27-6.47 95.44-6.47L95.44-6.47L95.44-6.47Q97.55-6.42 97.59-4.27Z"></path>
                </g>
            </g>
        </g>
    </g>
</svg>